<?xml version="1.0" encoding="UTF-8" standalone="no"?>
<!-- Created with Inkscape (http://www.inkscape.org/) -->

<svg
   xmlns:dc="http://purl.org/dc/elements/1.1/"
   xmlns:cc="http://creativecommons.org/ns#"
   xmlns:rdf="http://www.w3.org/1999/02/22-rdf-syntax-ns#"
   xmlns:svg="http://www.w3.org/2000/svg"
   xmlns="http://www.w3.org/2000/svg"
   xmlns:xlink="http://www.w3.org/1999/xlink"
   xmlns:sodipodi="http://sodipodi.sourceforge.net/DTD/sodipodi-0.dtd"
   xmlns:inkscape="http://www.inkscape.org/namespaces/inkscape"
   width="64"
   height="64"
   viewBox="0 0 64 64.000002"
   id="svg2"
   version="1.1"
   inkscape:version="0.91 r13725"
   sodipodi:docname="time2backup.svg"
   inkscape:export-filename="C:\Users\Thestylis\Desktop\time2backup2.png"
   inkscape:export-xdpi="720"
   inkscape:export-ydpi="720">
  <defs
     id="defs4">
    <linearGradient
       inkscape:collect="always"
       id="linearGradient4184">
      <stop
         style="stop-color:#000000;stop-opacity:1;"
         offset="0"
         id="stop4186" />
      <stop
         style="stop-color:#000000;stop-opacity:0;"
         offset="1"
         id="stop4188" />
    </linearGradient>
    <linearGradient
       inkscape:collect="always"
       xlink:href="#linearGradient4184"
       id="linearGradient4190"
       x1="28"
       y1="1020.3621"
       x2="48"
       y2="1032.3621"
       gradientUnits="userSpaceOnUse" />
  </defs>
  <sodipodi:namedview
     id="base"
     pagecolor="#ffffff"
     bordercolor="#666666"
     borderopacity="1.0"
     inkscape:pageopacity="0.0"
     inkscape:pageshadow="2"
     inkscape:zoom="11.2"
     inkscape:cx="24.2896"
     inkscape:cy="30.759762"
     inkscape:document-units="px"
     inkscape:current-layer="layer1"
     showgrid="true"
     units="px"
     inkscape:window-width="1920"
     inkscape:window-height="1018"
     inkscape:window-x="-8"
     inkscape:window-y="-8"
     inkscape:window-maximized="1"
     inkscape:snap-bbox="true"
     inkscape:bbox-nodes="true"
     inkscape:snap-intersection-paths="true"
     inkscape:object-nodes="true"
     inkscape:snap-nodes="true"
     inkscape:snap-others="false"
     inkscape:snap-global="true"
     inkscape:object-paths="true"
     showguides="true"
     inkscape:guide-bbox="true">
    <inkscape:grid
       type="xygrid"
       id="grid4136" />
  </sodipodi:namedview>
  <metadata
     id="metadata7">
    <rdf:RDF>
      <cc:Work
         rdf:about="">
        <dc:format>image/svg+xml</dc:format>
        <dc:type
           rdf:resource="http://purl.org/dc/dcmitype/StillImage" />
        <dc:title />
      </cc:Work>
    </rdf:RDF>
  </metadata>
  <g
     inkscape:label="Calque 1"
     inkscape:groupmode="layer"
     id="layer1"
     transform="translate(0,-988.3621)"
     style="display:inline">
    <g
       id="g4157">
      <path
         sodipodi:nodetypes="ccccccccc"
         inkscape:connector-curvature="0"
         id="path4182"
         d="m 44,1006.3621 20,20 0,26 -18,0 -18,-18 8,0 0,-22 8,0 0,-6"
         style="opacity:0.3;fill:url(#linearGradient4190);fill-opacity:1;fill-rule:evenodd;stroke:none;stroke-width:2;stroke-linecap:round;stroke-linejoin:round;stroke-miterlimit:4;stroke-dasharray:none;stroke-dashoffset:0;stroke-opacity:1" />
      <g
         id="g4146">
        <path
           style="opacity:1;fill:#232629;fill-opacity:1;fill-rule:evenodd;stroke:none;stroke-width:2;stroke-linecap:round;stroke-linejoin:round;stroke-miterlimit:4;stroke-dasharray:none;stroke-dashoffset:0;stroke-opacity:1"
           d="m 20,1006.3621 0,6 8,0 0,22 8,0 0,-22 8,0 0,-6 z"
           id="rect4161"
           inkscape:connector-curvature="0"
           sodipodi:nodetypes="ccccccccc" />
        <rect
           style="opacity:0.3;fill:#ffffff;fill-opacity:1;fill-rule:evenodd;stroke:none;stroke-width:2;stroke-linecap:round;stroke-linejoin:round;stroke-miterlimit:4;stroke-dasharray:none;stroke-dashoffset:0;stroke-opacity:1"
           id="rect4157"
           width="24"
           height="1"
           x="20"
           y="1006.3621" />
        <rect
           style="opacity:0.3;fill:#000000;fill-opacity:1;fill-rule:evenodd;stroke:none;stroke-width:2;stroke-linecap:round;stroke-linejoin:round;stroke-miterlimit:4;stroke-dasharray:none;stroke-dashoffset:0;stroke-opacity:1"
           id="rect4159"
           width="8"
           height="1"
           x="28"
           y="1033.3621" />
      </g>
      <g
         id="g4151">
        <path
           style="opacity:1;fill:#232629;fill-opacity:1;fill-rule:evenodd;stroke:none;stroke-width:2;stroke-linecap:round;stroke-linejoin:round;stroke-miterlimit:4;stroke-dasharray:none;stroke-dashoffset:0;stroke-opacity:1"
           d="m 32,988.3621 c -17.673112,0 -32,14.3269 -32,32 0,17.6731 14.326888,32 32,32 l 0,-8 c -13.254825,0 -23.999978,-10.7452 -24,-24 2.2e-5,-13.2548 10.745175,-23.99998 24,-24 13.254824,2e-5 23.999978,10.7452 24,24 -0.0052,6.3632 -2.53702,12.464 -7.039062,16.9609 L 44,1032.3621 l 0,16 16,0 -5.386718,-5.3867 c 6.002886,-5.9954 9.379222,-14.1292 9.386718,-22.6133 0,-17.6731 -14.326888,-32 -32,-32 z"
           id="path4149"
           inkscape:connector-curvature="0"
           sodipodi:nodetypes="ssccsscccccccs" />
        <path
           style="opacity:0.3;fill:#ffffff;fill-opacity:1;fill-rule:evenodd;stroke:none;stroke-width:2;stroke-linecap:round;stroke-linejoin:round;stroke-miterlimit:4;stroke-dasharray:none;stroke-dashoffset:0;stroke-opacity:1"
           d="m 32,988.3621 a 32,32 0 0 0 -32,32 32,32 0 0 0 0.02148,0.5859 A 32,32 0 0 1 32,989.3621 a 32,32 0 0 1 31.97852,31.4141 32,32 0 0 0 0.0215,-0.4141 32,32 0 0 0 -32,-32 z"
           id="path4161"
           inkscape:connector-curvature="0" />
        <path
           inkscape:connector-curvature="0"
           style="opacity:0.3;fill:#000000;fill-opacity:1;fill-rule:evenodd;stroke:none;stroke-width:2;stroke-linecap:round;stroke-linejoin:round;stroke-miterlimit:4;stroke-dasharray:none;stroke-dashoffset:0;stroke-opacity:1"
           d="M 0.02148438,31.414062 A 32,32 0 0 0 0,32 32,32 0 0 0 32,64 l 0,-1 A 32,32 0 0 1 0.02148438,31.414062 Z M 63.978516,31.585938 A 32,32 0 0 1 63.960938,32 L 64,32 a 32,32 0 0 0 -0.02148,-0.414062 z"
           transform="translate(0,988.3621)"
           id="path4166" />
        <path
           inkscape:connector-curvature="0"
           style="opacity:0.3;fill:#000000;fill-opacity:1;fill-rule:evenodd;stroke:none;stroke-width:2;stroke-linecap:round;stroke-linejoin:round;stroke-miterlimit:4;stroke-dasharray:none;stroke-dashoffset:0;stroke-opacity:1"
           d="m 44,59 0,1 16,0 -1,-1 -15,0 z"
           transform="translate(0,988.3621)"
           id="path4175" />
      </g>
    </g>
  </g>
</svg>
